# xmcd
#
# Track frame offsets:
#	182
#	10185
#	20725
#	31612
#	41552
#	52942
#	63950
#	75042
#	86517
#	98875
#	112027
#	121435
#	132317
#	143100
#	153515
#	164725
#	176595
#	189490
#	198632
#	209070
#
# Disc length: 2937 seconds
#
# Revision: 1
# Processed by: cddbd v1.5.2PL0 Copyright (c) Steve Scherf et al.
# Submitted via: EZCDAudioConverter 4.0.9.1
#
DISCID=100b7714
DTITLE=Earl Hooker - Best of the Blues: Earl Hooker and Junior Wells
DYEAR=1900
DGENRE=Blues
TTITLE0=Love Me
TTITLE1=Come on in This House
TTITLE2=Two Headed Woman
TTITLE3=Lovely Dovey Lovey One
TTITLE4=I Could Cry
TTITLE5=Cha Cha Cha in Blue
TTITLE6=You Don't Care
TTITLE7=Prison Bars All Around Me
TTITLE8=Calling All Blues
TTITLE9=Galloping Horses a Lazy Mule
TTITLE10=Blues in D Natural
TTITLE11=Messin' with the Kid
TTITLE12=You Sure Look Good to Me
TTITLE13=Universal Rock
TTITLE14=Rockin' with the Kid
TTITLE15=Little by Little
TTITLE16=These Cotton Pickin' Blues
TTITLE17=Blue Guitar
TTITLE18=I'm a Stranger
TTITLE19=I Need Me a Car
EXTD=
EXTT0=
EXTT1=
EXTT2=
EXTT3=
EXTT4=
EXTT5=
EXTT6=
EXTT7=
EXTT8=
EXTT9=
EXTT10=
EXTT11=
EXTT12=
EXTT13=
EXTT14=
EXTT15=
EXTT16=
EXTT17=
EXTT18=
EXTT19=
PLAYORDER=
